/vscmnt/brussel_pixiu_data/_data_brussel/112/vsc11236/PredSimResults/SUBJ04opt3D/weighted/trackIG/worker_03.mot
version=1
nRows=5
nColumns=50
inDegrees=yes
endheader
                time	         pelvis_tilt	         pelvis_list	     pelvis_rotation	           pelvis_tx	           pelvis_ty	           pelvis_tz	       hip_flexion_r	     hip_adduction_r	      hip_rotation_r	        knee_angle_r	       ankle_angle_r	         mtp_angle_r	       hip_flexion_l	     hip_adduction_l	      hip_rotation_l	        knee_angle_l	       ankle_angle_l	         mtp_angle_l	    lumbar_extension	      lumbar_bending	     lumbar_rotation	 ercspn_r/activation	 intobl_r/activation	 extobl_r/activation	    abd_r/activation	    add_r/activation	hamstrings_r/activation	bifemsh_r/activation	glut_max_r/activation	iliopsoas_r/activation	rect_fem_r/activation	  vasti_r/activation	gastroc_r/activation	 soleus_r/activation	tib_ant_r/activation	 ercspn_l/activation	 intobl_l/activation	 extobl_l/activation	    abd_l/activation	    add_l/activation	hamstrings_l/activation	bifemsh_l/activation	glut_max_l/activation	iliopsoas_l/activation	rect_fem_l/activation	  vasti_l/activation	gastroc_l/activation	 soleus_l/activation	tib_ant_l/activation	
          0.68757809	         -1.51750264	         -0.25187539	         -8.52079496	          0.58444137	          0.88454590	          0.01098349	        -11.92675501	         -0.25796601	         -7.29373433	         -6.86542018	         14.13836015	         17.63901661	         28.10904720	         -2.83006445	         -9.62483780	        -10.45904412	          3.94979574	          0.23007505	        -14.04661928	          4.26127869	          7.77027727	          0.01000001	          0.00999999	          0.00999999	          0.07874070	          0.00999999	          0.02971375	          0.29329623	          0.02025165	          0.01857206	          0.00999999	          0.00999999	          0.26282488	          0.24387092	          0.01304578	          0.04559722	          0.23331040	          0.02229639	          0.00999999	          0.26111523	          0.06589603	          0.01510899	          0.01697159	          0.18843695	          0.04166294	          0.05064061	          0.00999999	          0.00999999	          0.33721044	
          0.70132965	         -1.62833408	         -0.24176768	         -8.29244964	          0.59953962	          0.88211790	          0.01059667	        -12.59927401	         -0.36501296	         -7.95851539	         -7.36466080	         14.04812996	         19.00466500	         28.10890887	         -2.66638003	         -9.83064735	        -11.81247436	          3.77721227	          0.22666011	        -13.53361465	          3.61646431	          7.82804838	          0.02526602	          0.00999999	          0.00999999	          0.06405888	          0.00999999	          0.02417339	          0.24617837	          0.01647557	          0.01510915	          0.00999999	          0.00999999	          0.25710852	          0.25240133	          0.01061329	          0.03709526	          0.22675063	          0.01813905	          0.00999999	          0.31174094	          0.06802751	          0.01229182	          0.01380711	          0.15330139	          0.03389456	          0.04119827	          0.01510914	          0.01857204	          0.33136297	
          0.71508121	         -1.72275780	         -0.17375068	         -8.02305429	          0.61509318	          0.87981421	          0.01016330	        -13.23332741	         -0.53764781	         -8.66437306	         -8.01144594	         13.87296817	         20.45131891	         27.99017821	         -2.49119839	         -9.89471125	        -13.17870823	          3.53583313	          0.22130813	        -12.97804992	          2.88025166	          7.86269764	          0.02597959	          0.00999999	          0.00999999	          0.05211459	          0.00999999	          0.03229563	          0.20027647	          0.01340357	          0.01229193	          0.00999999	          0.00999999	          0.23215788	          0.25208908	          0.00999999	          0.03017855	          0.21963812	          0.01475688	          0.01461117	          0.25361438	          0.07288631	          0.01000007	          0.03179444	          0.12471713	          0.02757465	          0.04179211	          0.01229192	          0.01510914	          0.35373278	
          0.72883277	         -1.80209895	         -0.04255667	         -7.70289335	          0.63090244	          0.87781416	          0.00961904	        -13.76845609	         -0.78836416	         -9.42144343	         -8.88725102	         13.58960208	         21.96539886	         27.81162438	         -2.26846356	        -10.05539587	        -14.42597576	          3.13041390	          0.20724888	        -12.40735902	          2.05438613	          7.86407515	          0.02726365	          0.00999999	          0.00999999	          0.04239742	          0.00999999	          0.04117077	          0.16293334	          0.01127777	          0.01000001	          0.00999999	          0.00999999	          0.18887021	          0.24257290	          0.00999999	          0.02455152	          0.17868486	          0.01200534	          0.02237307	          0.21449382	          0.07893647	          0.01000024	          0.02586611	          0.10146264	          0.02243314	          0.11240219	          0.00999999	          0.01229192	          0.38174967	
          0.74258433	         -1.86687498	          0.14095630	         -7.33895895	          0.64684525	          0.87630114	          0.00894890	        -14.15476042	         -1.11797807	        -10.22076686	        -10.06272030	         13.15174170	         23.54100140	         27.56252800	         -2.00619259	        -10.35529090	        -15.57258490	          2.78332646	          0.18603356	        -11.84148597	          1.15778728	          7.83163091	          0.04222936	          0.00999999	          0.00999999	          0.03449208	          0.00999999	          0.03493365	          0.13255313	          0.01089535	          0.00999999	          0.00999999	          0.00999999	          0.15365386	          0.22513746	          0.00999999	          0.02344589	          0.14536765	          0.00999999	          0.04543295	          0.18752418	          0.07894705	          0.01000009	          0.02104317	          0.08254413	          0.01825030	          0.18218748	          0.00999999	          0.00999999	          0.39679260	
